
<global>
amp_veltrack=0
ampeg_release=0.65
</global>

<group>
group_label=PP
xf_cccurve=gain
xfin_hicc1=42
xfout_hicc1=85
xfout_locc1=42

<region>
hikey=g6
hivel=127
lokey=f#6
loop_end=291548
loop_mode=loop_continuous
loop_start=100423
loop_xfade=45350
lovel=1
offset=17850
pitch_keycenter=g6
release_start=313106
release_xfade=8000
sample=Violins1_min3rd_PP_G6.opus
</region>

<region>
hikey=g5
hivel=127
lokey=f#5
loop_end=296610
loop_mode=loop_continuous
loop_start=100653
loop_xfade=45454
lovel=1
offset=12028
pitch_keycenter=g5
release_start=311192
release_xfade=8000
sample=Violins1_min3rd_PP_G5.opus
</region>

<region>
hikey=g4
hivel=127
lokey=f#4
loop_end=280414
loop_mode=loop_continuous
loop_start=99920
loop_xfade=45123
lovel=1
offset=10500
pitch_keycenter=g4
release_start=308951
release_xfade=8000
sample=Violins1_min3rd_PP_G4.opus
</region>

<region>
hivel=127
key=g3
loop_end=275001
loop_mode=loop_continuous
loop_start=97991
loop_xfade=44252
lovel=1
offset=7326
release_start=304964
release_xfade=8000
sample=Violins1_min3rd_PP_G3.opus
</region>

<region>
hikey=f6
hivel=127
lokey=e6
loop_end=290073
loop_mode=loop_continuous
loop_start=100653
loop_xfade=45454
lovel=1
offset=17870
pitch_keycenter=f6
release_start=312799
release_xfade=8000
sample=Violins1_min3rd_PP_F6.opus
</region>

<region>
hikey=f5
hivel=127
lokey=e5
loop_end=303352
loop_mode=loop_continuous
loop_start=100653
loop_xfade=45454
lovel=1
offset=12159
pitch_keycenter=f5
release_start=315000
release_xfade=8000
sample=Violins1_min3rd_PP_F5.opus
</region>

<region>
hikey=f4
hivel=127
lokey=e4
loop_end=289176
loop_mode=loop_continuous
loop_start=100516
loop_xfade=45392
lovel=1
offset=17446
pitch_keycenter=f4
release_start=309060
release_xfade=8000
sample=Violins1_min3rd_PP_F4.opus
</region>

<region>
hikey=d#6
hivel=127
lokey=d6
loop_end=292524
loop_mode=loop_continuous
loop_start=100653
loop_xfade=45454
lovel=1
offset=19075
pitch_keycenter=d#6
release_start=310859
release_xfade=8000
sample=Violins1_min3rd_PP_D#6.opus
</region>

<region>
hikey=d#5
hivel=127
lokey=d5
loop_end=292721
loop_mode=loop_continuous
loop_start=100653
loop_xfade=45454
lovel=1
offset=14136
pitch_keycenter=d#5
release_start=315000
release_xfade=8000
sample=Violins1_min3rd_PP_D#5.opus
</region>

<region>
hikey=d#4
hivel=127
lokey=d4
loop_end=290420
loop_mode=loop_continuous
loop_start=100653
loop_xfade=45454
lovel=1
offset=15497
pitch_keycenter=d#4
release_start=311581
release_xfade=8000
sample=Violins1_min3rd_PP_D#4.opus
</region>

<region>
hikey=c#6
hivel=127
lokey=c6
loop_end=298394
loop_mode=loop_continuous
loop_start=100653
loop_xfade=45454
lovel=1
offset=18066
pitch_keycenter=c#6
release_start=315000
release_xfade=8000
sample=Violins1_min3rd_PP_C#6.opus
</region>

<region>
hikey=c#5
hivel=127
lokey=c5
loop_end=283568
loop_mode=loop_continuous
loop_start=100653
loop_xfade=45454
lovel=1
offset=13955
pitch_keycenter=c#5
release_start=312351
release_xfade=8000
sample=Violins1_min3rd_PP_C#5.opus
</region>

<region>
hikey=c#4
hivel=127
lokey=c4
loop_end=297464
loop_mode=loop_continuous
loop_start=99057
loop_xfade=44734
lovel=1
offset=13896
pitch_keycenter=c#4
release_start=310156
release_xfade=8000
sample=Violins1_min3rd_PP_C#4.opus
</region>

<region>
hikey=b5
hivel=127
lokey=a#5
loop_end=292269
loop_mode=loop_continuous
loop_start=100653
loop_xfade=45454
lovel=1
offset=17224
pitch_keycenter=b5
release_start=315000
release_xfade=8000
sample=Violins1_min3rd_PP_B5.opus
</region>

<region>
hikey=b4
hivel=127
lokey=a#4
loop_end=282273
loop_mode=loop_continuous
loop_start=100582
loop_xfade=45422
lovel=1
offset=13147
pitch_keycenter=b4
release_start=307784
release_xfade=8000
sample=Violins1_min3rd_PP_B4.opus
</region>

<region>
hikey=b3
hivel=127
lokey=a#3
loop_end=282472
loop_mode=loop_continuous
loop_start=100653
loop_xfade=45454
lovel=1
offset=18693
pitch_keycenter=b3
release_start=313448
release_xfade=8000
sample=Violins1_min3rd_PP_B3.opus
</region>

<region>
end=372416
hikey=a6
hivel=127
lokey=g#6
loop_end=289662
loop_mode=loop_continuous
loop_start=88638
loop_xfade=32669
lovel=1
offset=15077
pitch_keycenter=A6
release_start=310884
release_xfade=8000
sample=Violins1_min3rd_PP_A6.opus
</region>

<region>
hikey=a5
hivel=127
lokey=g#5
loop_end=285504
loop_mode=loop_continuous
loop_start=100653
loop_xfade=45454
lovel=1
offset=20239
pitch_keycenter=a5
release_start=315000
release_xfade=8000
sample=Violins1_min3rd_PP_A5.opus
</region>

<region>
hikey=a4
hivel=127
lokey=g#4
loop_end=306106
loop_mode=loop_continuous
loop_start=100653
loop_xfade=45454
lovel=1
offset=15968
pitch_keycenter=a4
release_start=311989
release_xfade=8000
sample=Violins1_min3rd_PP_A4.opus
</region>

<region>
end=339331
hikey=a3
hivel=127
lokey=g#3
loop_end=282472
loop_mode=loop_continuous
loop_start=100653
loop_xfade=45454
lovel=1
offset=14125
pitch_keycenter=a3
release_start=309755
release_xfade=8000
sample=Violins1_min3rd_PP_A3.opus
</region>
</group>

<group>
group_label=MF
xf_cccurve=gain
xfin_hicc1=85
xfin_locc1=42
xfout_hicc1=127
xfout_locc1=85

<region>
hikey=g6
hivel=127
lokey=f#6
loop_end=288516
loop_mode=loop_continuous
loop_start=97901
loop_xfade=44212
lovel=1
offset=4392
pitch_keycenter=g6
release_start=294440
release_xfade=8000
sample=Violins1_min3rd_MF_G6.opus
</region>

<region>
hikey=g5
hivel=127
lokey=f#5
loop_end=286769
loop_mode=loop_continuous
loop_start=95169
loop_xfade=42978
lovel=1
offset=501
pitch_keycenter=g5
release_start=296830
release_xfade=8000
sample=Violins1_min3rd_MF_G5.opus
</region>

<region>
hikey=g4
hivel=127
lokey=f#4
loop_end=289558
loop_mode=loop_continuous
loop_start=94840
loop_xfade=42829
lovel=1
offset=573
pitch_keycenter=g4
release_start=297430
release_xfade=8000
sample=Violins1_min3rd_MF_G4.opus
</region>

<region>
hivel=127
key=g3
loop_end=274362
loop_mode=loop_continuous
loop_start=92618
loop_xfade=41826
lovel=1
offset=27
release_start=282317
release_xfade=8000
sample=Violins1_min3rd_MF_G3.opus
</region>

<region>
hikey=f6
hivel=127
lokey=e6
loop_end=282024
loop_mode=loop_continuous
loop_start=97629
loop_xfade=44089
lovel=1
offset=702
pitch_keycenter=f6
release_start=295333
release_xfade=8000
sample=Violins1_min3rd_MF_F6.opus
</region>

<region>
hikey=f5
hivel=127
lokey=e5
loop_end=294295
loop_mode=loop_continuous
loop_start=98131
loop_xfade=44315
lovel=1
offset=709
pitch_keycenter=f5
release_start=301590
release_xfade=8000
sample=Violins1_min3rd_MF_F5.opus
</region>

<region>
hikey=f4
hivel=127
lokey=e4
loop_end=285314
loop_mode=loop_continuous
loop_start=95292
loop_xfade=43033
lovel=1
offset=568
pitch_keycenter=f4
release_start=298361
release_xfade=8000
sample=Violins1_min3rd_MF_F4.opus
</region>

<region>
hikey=d#6
hivel=127
lokey=d6
loop_end=282313
loop_mode=loop_continuous
loop_start=95153
loop_xfade=42971
lovel=1
offset=4543
pitch_keycenter=d#6
release_start=290782
release_xfade=8000
sample=Violins1_min3rd_MF_D#6.opus
</region>

<region>
hikey=d#5
hivel=127
lokey=d5
loop_end=288662
loop_mode=loop_continuous
loop_start=95749
loop_xfade=43240
lovel=1
offset=826
pitch_keycenter=d#5
release_start=298546
release_xfade=8000
sample=Violins1_min3rd_MF_D#5.opus
</region>

<region>
hikey=d#4
hivel=127
lokey=d4
loop_end=296212
loop_mode=loop_continuous
loop_start=97630
loop_xfade=44089
lovel=1
offset=499
pitch_keycenter=d#4
release_start=308074
release_xfade=8000
sample=Violins1_min3rd_MF_D#4.opus
</region>

<region>
end=336713
hikey=c#6
hivel=127
lokey=c6
loop_end=277036
loop_mode=loop_continuous
loop_start=98716
loop_xfade=44580
lovel=1
offset=1135
pitch_keycenter=c#6
release_start=292320
release_xfade=8000
sample=Violins1_min3rd_MF_C#6.opus
</region>

<region>
hikey=c#5
hivel=127
lokey=c5
loop_end=286087
loop_mode=loop_continuous
loop_start=96621
loop_xfade=43633
lovel=1
offset=893
pitch_keycenter=c#5
release_start=298236
release_xfade=8000
sample=Violins1_min3rd_MF_C#5.opus
</region>

<region>
hikey=c#4
hivel=127
lokey=c4
loop_end=283554
loop_mode=loop_continuous
loop_start=95280
loop_xfade=43028
lovel=1
offset=522
pitch_keycenter=c#4
release_start=304377
release_xfade=8000
sample=Violins1_min3rd_MF_C#4.opus
</region>

<region>
hikey=b5
hivel=127
lokey=a#5
loop_end=274689
loop_mode=loop_continuous
loop_start=97880
loop_xfade=44202
lovel=1
offset=250
pitch_keycenter=b5
release_start=294839
release_xfade=8000
sample=Violins1_min3rd_MF_B5.opus
</region>

<region>
hikey=b4
hivel=127
lokey=a#4
loop_end=293486
loop_mode=loop_continuous
loop_start=96502
loop_xfade=43580
lovel=1
offset=2488
pitch_keycenter=b4
release_start=301154
release_xfade=8000
sample=Violins1_min3rd_MF_B4.opus
</region>

<region>
hikey=b3
hivel=127
lokey=a#3
loop_end=294538
loop_mode=loop_continuous
loop_start=97413
loop_xfade=43991
lovel=1
offset=2607
pitch_keycenter=b3
release_start=303666
release_xfade=8000
sample=Violins1_min3rd_MF_B3.opus
</region>

<region>
end=346762
hikey=a6
hivel=127
lokey=g#6
loop_end=279549
loop_mode=loop_continuous
loop_start=95974
loop_xfade=43341
lovel=1
offset=2344
pitch_keycenter=A6
release_start=286892
release_xfade=8000
sample=Violins1_min3rd_MF_A6.opus
</region>

<region>
hikey=a5
hivel=127
lokey=g#5
loop_end=286058
loop_mode=loop_continuous
loop_start=96319
loop_xfade=43497
lovel=1
offset=759
pitch_keycenter=a5
release_start=298124
release_xfade=8000
sample=Violins1_min3rd_MF_A5.opus
</region>

<region>
hikey=a4
hivel=127
lokey=g#4
loop_end=286789
loop_mode=loop_continuous
loop_start=93885
loop_xfade=42398
lovel=1
offset=2445
pitch_keycenter=a4
release_start=298935
release_xfade=8000
sample=Violins1_min3rd_MF_A4.opus
</region>

<region>
hikey=a3
hivel=127
lokey=g#3
loop_end=270836
loop_mode=loop_continuous
loop_start=96507
loop_xfade=43582
lovel=1
offset=1650
pitch_keycenter=a3
release_start=304949
release_xfade=8000
sample=Violins1_min3rd_MF_A3.opus
</region>
</group>

<group>
group_label=FF
xf_cccurve=gain
xfin_hicc1=127
xfin_locc1=85
xfout_hicc1=127
xfout_locc1=127

<region>
hikey=g6
hivel=127
lokey=f#6
loop_end=291487
loop_mode=loop_continuous
loop_start=96423
loop_xfade=43544
lovel=1
offset=220
pitch_keycenter=g6
release_start=293044
release_xfade=8000
sample=Violins1_min3rd_FF_G6.opus
</region>

<region>
hikey=g5
hivel=127
lokey=f#5
loop_end=294383
loop_mode=loop_continuous
loop_start=95735
loop_xfade=43234
lovel=1
offset=379
pitch_keycenter=g5
release_start=293897
release_xfade=8000
sample=Violins1_min3rd_FF_G5.opus
</region>

<region>
hikey=g4
hivel=127
lokey=f#4
loop_end=296580
loop_mode=loop_continuous
loop_start=95829
loop_xfade=43276
lovel=1
offset=48
pitch_keycenter=g4
release_start=298619
release_xfade=8000
sample=Violins1_min3rd_FF_G4.opus
</region>

<region>
hivel=127
key=g3
loop_end=286560
loop_mode=loop_continuous
loop_start=95940
loop_xfade=43326
lovel=1
release_start=309205
release_xfade=8000
sample=Violins1_min3rd_FF_G3.opus
</region>

<region>
hikey=f6
hivel=127
lokey=e6
loop_end=290778
loop_mode=loop_continuous
loop_start=95498
loop_xfade=43127
lovel=1
offset=298
pitch_keycenter=f6
release_start=291941
release_xfade=8000
sample=Violins1_min3rd_FF_F6.opus
</region>

<region>
hikey=f5
hivel=127
lokey=e5
loop_end=291963
loop_mode=loop_continuous
loop_start=95621
loop_xfade=43182
lovel=1
offset=581
pitch_keycenter=f5
release_start=293191
release_xfade=8000
sample=Violins1_min3rd_FF_F5.opus
</region>

<region>
hikey=f4
hivel=127
lokey=e4
loop_end=296215
loop_mode=loop_continuous
loop_start=96618
loop_xfade=43632
lovel=1
offset=697
pitch_keycenter=f4
release_start=299476
release_xfade=8000
sample=Violins1_min3rd_FF_F4.opus
</region>

<region>
hikey=d#6
hivel=127
lokey=d6
loop_end=293439
loop_mode=loop_continuous
loop_start=96967
loop_xfade=43790
lovel=1
offset=558
pitch_keycenter=d#6
release_start=295786
release_xfade=8000
sample=Violins1_min3rd_FF_D#6.opus
</region>

<region>
hikey=d#5
hivel=127
lokey=d5
loop_end=284691
loop_mode=loop_continuous
loop_start=94567
loop_xfade=42706
lovel=1
offset=169
pitch_keycenter=d#5
release_start=288281
release_xfade=8000
sample=Violins1_min3rd_FF_D#5.opus
</region>

<region>
hikey=d#4
hivel=127
lokey=d4
loop_end=297368
loop_mode=loop_continuous
loop_start=98009
loop_xfade=44260
lovel=1
offset=496
pitch_keycenter=d#4
release_start=303043
release_xfade=8000
sample=Violins1_min3rd_FF_D#4.opus
</region>

<region>
hikey=c#6
hivel=127
lokey=c6
loop_end=289387
loop_mode=loop_continuous
loop_start=95235
loop_xfade=43007
lovel=1
offset=1034
pitch_keycenter=c#6
release_start=293255
release_xfade=8000
sample=Violins1_min3rd_FF_C#6.opus
</region>

<region>
hikey=c#5
hivel=127
lokey=c5
loop_end=284777
loop_mode=loop_continuous
loop_start=95257
loop_xfade=43017
lovel=1
offset=298
pitch_keycenter=c#5
release_start=287868
release_xfade=8000
sample=Violins1_min3rd_FF_C#5.opus
</region>

<region>
hikey=c#4
hivel=127
lokey=c4
loop_end=304519
loop_mode=loop_continuous
loop_start=97840
loop_xfade=44184
lovel=1
offset=844
pitch_keycenter=c#4
release_start=307443
release_xfade=8000
sample=Violins1_min3rd_FF_C#4.opus
</region>

<region>
hikey=b5
hivel=127
lokey=a#5
loop_end=294197
loop_mode=loop_continuous
loop_start=96693
loop_xfade=43666
lovel=1
offset=1433
pitch_keycenter=b5
release_start=297028
release_xfade=8000
sample=Violins1_min3rd_FF_B5.opus
</region>

<region>
hikey=b4
hivel=127
lokey=a#4
loop_end=296367
loop_mode=loop_continuous
loop_start=97200
loop_xfade=43895
lovel=1
offset=15
pitch_keycenter=b4
release_start=298847
release_xfade=8000
sample=Violins1_min3rd_FF_B4.opus
</region>

<region>
hikey=b3
hivel=127
lokey=a#3
loop_end=292028
loop_mode=loop_continuous
loop_start=95419
loop_xfade=43091
lovel=1
offset=510
pitch_keycenter=b3
release_start=301610
release_xfade=8000
sample=Violins1_min3rd_FF_B3.opus
</region>

<region>
hikey=a6
hivel=127
lokey=g#6
loop_end=291885
loop_mode=loop_continuous
loop_start=95943
loop_xfade=43328
lovel=1
offset=1335
pitch_keycenter=A6
release_start=292618
release_xfade=8000
sample=Violins1_min3rd_FF_A6.opus
</region>

<region>
hikey=a5
hivel=127
lokey=g#5
loop_end=289707
loop_mode=loop_continuous
loop_start=95080
loop_xfade=42937
lovel=1
offset=983
pitch_keycenter=a5
release_start=291434
release_xfade=8000
sample=Violins1_min3rd_FF_A5.opus
</region>

<region>
hikey=a4
hivel=127
lokey=g#4
loop_end=293563
loop_mode=loop_continuous
loop_start=95916
loop_xfade=43315
lovel=1
offset=311
pitch_keycenter=a4
release_start=294302
release_xfade=8000
sample=Violins1_min3rd_FF_A4.opus
</region>

<region>
hikey=a3
hivel=127
lokey=g#3
loop_end=292625
loop_mode=loop_continuous
loop_start=96990
loop_xfade=43800
lovel=1
offset=890
pitch_keycenter=a3
release_start=301175
release_xfade=8000
sample=Violins1_min3rd_FF_A3.opus
</region>
</group>